<svg width="37" height="37" viewBox="0 0 37 37" fill="none" xmlns="http://www.w3.org/2000/svg">
<path d="M17.6394 1.51881C18.2967 0.861483 19.3625 0.861483 20.0198 1.51881C20.6771 2.17614 20.6771 3.24188 20.0198 3.89921L4.54721 19.3718C3.88988 20.0291 2.82414 20.0291 2.16681 19.3718C1.50949 18.7145 1.50948 17.6487 2.16681 16.9914L17.6394 1.51881Z" fill="#C6DCE3"/>
<path d="M20.0198 32.464C20.6771 33.1213 20.6771 34.187 20.0198 34.8444C19.3625 35.5017 18.2967 35.5017 17.6394 34.8444L2.16681 19.3718C1.50949 18.7145 1.50948 17.6487 2.16681 16.9914C2.82414 16.3341 3.88988 16.3341 4.54721 16.9914L20.0198 32.464Z" fill="#C6DCE3"/>
</svg>
