<svg width="101" height="114" viewBox="0 0 101 114" fill="none" xmlns="http://www.w3.org/2000/svg">
<path d="M97.8197 7.49826H80.4035V3.64231C80.4035 2.06793 79.1165 0.792236 77.5282 0.792236H23.4187C21.8303 0.792236 20.5434 2.06793 20.5434 3.64231V7.49826H3.12676C1.53845 7.49826 0.251465 8.77433 0.251465 10.3483V30.4679C0.251465 30.7005 0.283669 36.2342 3.09149 41.8013C5.57612 46.7278 10.6685 52.5286 20.9432 53.3369C22.7424 64.22 30.5321 73.124 40.8345 76.6095V94.6785H30.181C28.9431 94.6785 27.8439 95.4636 27.4529 96.628L22.946 110.041C22.6542 110.91 22.8014 111.866 23.3416 112.609C23.8822 113.352 24.7501 113.792 25.674 113.792L75.2721 113.791C76.1964 113.791 77.064 113.351 77.6045 112.608C78.1447 111.865 78.2919 110.909 77.9998 110.04L73.4925 96.628C73.101 95.4636 72.0023 94.6785 70.7648 94.6785H60.1128V76.6091C70.4151 73.1236 78.2045 64.2192 80.0037 53.3369C90.2784 52.5286 95.3708 46.7274 97.855 41.8013C100.662 36.2342 100.695 30.7005 100.695 30.4679V10.3483C100.695 8.77433 99.4077 7.49826 97.8197 7.49826ZM8.31647 39.4126C6.05611 35.0394 6.00243 30.5052 6.00205 30.4683V13.1984H20.5437V47.5661C14.8813 46.895 10.7724 44.1646 8.31647 39.4126ZM71.2839 108.091L29.6626 108.092L32.2542 100.379H68.6922L71.2839 108.091ZM54.3622 94.6789H46.5851V77.9391C47.8586 78.104 49.1548 78.1979 50.4732 78.1979C51.7917 78.1979 53.0882 78.104 54.3626 77.9391V94.6789H54.3622ZM50.4732 72.4977C37.1411 72.4977 26.2943 61.7423 26.2943 48.5222V6.49238H74.6533V48.5226C74.6529 61.7427 63.8058 72.4977 50.4732 72.4977ZM94.9444 30.4596C94.9441 30.5048 94.89 35.0394 92.63 39.4126C90.1745 44.1646 86.0659 46.895 80.4035 47.5665V13.1984H94.9444V30.4596Z" fill="#2FC6F5"/>
</svg>
