<svg width="125" height="114" viewBox="0 0 125 114" fill="none" xmlns="http://www.w3.org/2000/svg">
<path d="M49.7665 65.4541C49.5294 71.7907 51.9368 76.936 56.3716 79.5709C58.2619 80.6938 60.3806 81.2553 62.5001 81.2553C64.6187 81.2553 66.7385 80.6938 68.6283 79.5712C73.0631 76.9366 75.4708 71.791 75.2337 65.4543C74.9385 57.5647 68.477 53.7493 62.5983 53.5428C62.5326 53.5403 62.467 53.5403 62.4013 53.5428C56.5231 53.7491 50.0622 57.5644 49.7665 65.4541ZM55.3742 65.6639C55.5459 61.0846 59.2967 59.3001 62.4998 59.1547C65.7035 59.3004 69.4546 61.0846 69.6257 65.6639C69.7837 69.8833 68.3752 73.1939 65.7618 74.7463C63.7501 75.9419 61.2501 75.9419 59.2378 74.7463C56.6244 73.1936 55.2162 69.8833 55.3742 65.6639ZM94.5194 65.4541C94.2821 71.7907 96.6894 76.936 101.125 79.5709C103.014 80.6938 105.134 81.2553 107.253 81.2553C109.372 81.2553 111.491 80.6938 113.381 79.5709C117.816 76.9363 120.223 71.7907 119.986 65.4543C119.691 57.5647 113.23 53.7493 107.351 53.5428C107.286 53.5403 107.22 53.5403 107.155 53.5428C101.275 53.7491 94.8135 57.5647 94.5194 65.4541ZM100.127 65.6636C100.298 61.0846 104.049 59.3004 107.253 59.1547C110.456 59.3004 114.207 61.0846 114.378 65.6639C114.536 69.8836 113.128 73.1939 110.515 74.7463C108.502 75.9419 106.003 75.9419 103.991 74.7463C101.377 73.1939 99.9692 69.8836 100.127 65.6636ZM78.7474 26.6438C80.6377 27.7667 82.7563 28.3281 84.8759 28.3281C86.9948 28.3281 89.114 27.7667 91.004 26.6438C95.4392 24.0091 97.8468 18.8636 97.6097 12.5266C97.3143 4.63755 90.8528 0.822205 84.9741 0.615697C84.9084 0.613453 84.8425 0.613453 84.7774 0.615697C78.8992 0.822205 72.4377 4.63755 72.1425 12.5266C71.9052 18.8636 74.3125 24.0089 78.7474 26.6438ZM77.7499 12.7368C77.9214 8.15772 81.6722 6.3735 84.8756 6.22816C88.0792 6.3735 91.8303 8.15772 92.0018 12.7368C92.1597 16.9565 90.7512 20.267 88.1379 21.8198C86.1253 23.0153 83.6253 23.015 81.6138 21.8198C79.0002 20.2668 77.592 16.9562 77.7499 12.7368ZM11.6189 79.5709C13.5089 80.6935 15.6282 81.255 17.7471 81.255C19.8661 81.255 21.9853 80.6935 23.8756 79.5706C28.3104 76.936 30.7181 71.7907 30.481 65.4538C30.1853 57.5644 23.7238 53.7491 17.8456 53.5425C17.7799 53.54 17.7143 53.54 17.6486 53.5425C11.7699 53.7488 5.30839 57.5644 5.01294 65.4541C4.77641 71.7907 7.18407 76.9363 11.6189 79.5709ZM10.6212 65.6639C10.7923 61.0846 14.5437 59.3004 17.7474 59.1547C20.9508 59.3004 24.7019 61.0846 24.8733 65.6639C25.0313 69.8833 23.6228 73.1936 21.0094 74.7463C18.9974 75.9416 16.4971 75.9416 14.4851 74.7463C11.8717 73.1939 10.4632 69.8833 10.6212 65.6639ZM80.2002 110.516C80.4825 112.039 79.4761 113.505 77.9522 113.787C77.7797 113.819 77.6074 113.837 77.4379 113.837C76.1116 113.837 74.9326 112.897 74.6824 111.546L72.2087 98.2001C71.358 93.6064 66.7195 91.5677 62.4998 91.5677C58.2801 91.5677 53.6418 93.6586 52.7911 98.252L50.9317 108.359H63.7055C65.2548 108.359 66.5113 109.615 66.5113 111.165C66.5113 112.714 65.2551 113.97 63.7055 113.97H47.5586C46.725 113.97 45.9346 113.53 45.4015 112.889C44.8684 112.249 44.6478 111.334 44.7996 110.515L47.2735 97.1606C48.7115 89.3969 55.9572 85.9213 62.5001 85.9213C69.0429 85.9213 76.2887 89.3966 77.7269 97.1606L80.2002 110.516ZM84.875 39.1518C80.6559 39.1521 76.0179 41.2082 75.1675 45.8013C74.8852 47.3251 73.4206 48.331 71.8979 48.0496C70.374 47.7676 69.3676 46.3036 69.6496 44.78C71.087 37.0163 78.3319 33.5408 84.8747 33.5405C91.4182 33.5399 98.6647 37.0149 100.103 44.7797C100.386 46.3036 99.3791 47.7673 97.8553 48.0496C97.6827 48.0816 97.5104 48.097 97.341 48.097C96.0146 48.097 94.8356 47.1529 94.5854 45.8019C93.7344 41.2076 89.0952 39.1515 84.875 39.1518ZM122.705 113.787C122.532 113.819 122.36 113.837 122.191 113.837C120.864 113.837 119.685 112.897 119.435 111.545L116.962 98.1998C116.111 93.6064 111.473 91.5677 107.253 91.5677C103.033 91.5677 98.3945 93.6586 97.5435 98.252L95.6838 108.359H108.458C110.007 108.359 111.263 109.615 111.263 111.165C111.263 112.714 110.007 113.97 108.458 113.97H92.3104C91.4768 113.97 90.6864 113.53 90.1533 112.889C89.6205 112.249 89.3997 111.334 89.5515 110.515L92.0253 97.1603C93.4636 89.3963 100.709 85.921 107.252 85.921C113.796 85.921 121.041 89.3963 122.48 97.1603L124.953 110.515C125.235 112.039 124.228 113.505 122.705 113.787ZM33.9956 26.6438C35.8856 27.7667 38.0045 28.3281 40.1235 28.3281C42.2427 28.3281 44.3616 27.7667 46.2519 26.6438C50.6868 24.0091 53.0942 18.8636 52.8571 12.5272C52.5627 4.63783 46.1012 0.822205 40.2222 0.615978C40.1563 0.613453 40.0906 0.613453 40.0252 0.615978C34.1465 0.822486 27.685 4.63783 27.3898 12.5269C27.1527 18.8638 29.5607 24.0091 33.9956 26.6438ZM32.9978 12.7365C33.169 8.15743 36.9203 6.3735 40.1237 6.22788C43.3271 6.37322 47.0785 8.15743 47.2494 12.7365C47.4073 16.9562 45.9991 20.2668 43.3858 21.8192C41.3737 23.0145 38.874 23.0148 36.862 21.8192C34.2484 20.2668 32.8398 16.9562 32.9978 12.7365ZM35.4481 110.516C35.7301 112.04 34.7237 113.505 33.2001 113.787C33.0273 113.819 32.8553 113.837 32.6858 113.837C31.3595 113.837 30.1802 112.897 29.9302 111.546L27.4569 98.2001C26.6059 93.6064 21.967 91.5677 17.7471 91.5677C13.5275 91.5677 8.88888 93.6586 8.03816 98.252L6.17931 108.359H19.7726C21.3223 108.359 22.5784 109.615 22.5784 111.165C22.5784 112.714 21.3223 113.97 19.7726 113.97H2.80589C1.97228 113.97 1.18188 113.53 0.648779 112.889C0.115675 112.248 -0.104862 111.334 0.0469324 110.515L2.51997 97.1603C3.95795 89.3966 11.2037 85.921 17.7465 85.921C24.29 85.9208 31.536 89.396 32.9742 97.1603L35.4481 110.516ZM40.1237 39.1518C35.9041 39.1518 31.2655 41.2079 30.4145 45.8016C30.1322 47.3251 28.6679 48.3308 27.1446 48.0496C25.6211 47.7673 24.6143 46.3033 24.8969 44.7797C26.3349 37.0158 33.5806 33.5405 40.1237 33.5405C46.6669 33.5405 53.9126 37.0158 55.3509 44.7797C55.6329 46.3036 54.6264 47.7673 53.1029 48.0496C52.93 48.0816 52.758 48.097 52.5886 48.097C51.2622 48.097 50.083 47.1526 49.8327 45.8016C48.982 41.2079 44.3434 39.1518 40.1237 39.1518Z" fill="#2FC6F5"/>
</svg>
