<svg width="86" height="126" viewBox="0 0 86 126" fill="none" xmlns="http://www.w3.org/2000/svg">
<path d="M23.6918 45.3614C26.8838 47.2576 30.4624 48.2058 34.0416 48.2058C37.6205 48.2058 41.1994 47.2576 44.3914 45.3614C51.9851 40.85 56.1034 31.9256 55.69 20.8766C55.405 13.2578 51.7025 7.88006 46.7152 4.5987C46.5425 4.45902 46.3531 4.33781 46.1491 4.23864C43.6215 2.68432 40.7958 1.64762 37.9341 1.11065C37.2935 0.990331 35.8279 0.821171 34.3635 0.795856C32.94 0.771137 31.5143 0.887882 31.0366 0.960252C21.8954 2.34511 12.8447 8.79049 12.3929 20.8769C11.9798 31.9256 16.098 40.85 23.6918 45.3614ZM18.3451 21.0993C18.7031 11.5271 26.4684 6.95146 34.0413 6.6462C36.5373 6.74686 39.0545 7.31152 41.32 8.3658C39.014 14.3799 32.9936 16.9031 27.7633 17.2253C26.1214 17.3263 24.8727 18.7391 24.9736 20.3807C25.0752 22.0226 26.4931 23.2713 28.1293 23.1701C36.3881 22.6617 43.0729 18.4061 46.2325 11.9572C48.263 14.2343 49.5943 17.2664 49.7378 21.099C50.0669 29.9007 47.0095 36.8774 41.3492 40.2401C36.8414 42.9181 31.2412 42.9178 26.734 40.2401C21.0734 36.8777 18.0157 29.901 18.3451 21.0993ZM30.4511 60.5543C21.2673 61.7718 14.9392 67.0452 13.524 74.6864L7.15724 109.028H27.3776C29.0222 109.028 30.3558 110.361 30.3558 112.006C30.3558 113.651 29.0222 114.984 27.3776 114.984H3.57687C2.69205 114.984 1.85309 114.621 1.28724 113.941C0.72168 113.261 0.487298 112.395 0.648418 111.525L7.6671 73.6324C9.54723 63.4827 17.9776 56.2151 29.6684 54.6652C35.3743 53.9085 41.2952 54.6643 46.34 56.7931C51.9753 59.1712 56.221 63.0732 58.6181 68.0772C59.3287 69.5606 58.7021 71.3392 57.219 72.0498C55.7356 72.7607 53.957 72.1338 53.2464 70.6506C49.1913 62.1854 38.5857 59.4759 30.4511 60.5543ZM35.4559 77.2696C35.4556 75.6248 36.7893 74.2915 38.4338 74.2912L44.2431 74.2906C45.8876 74.2906 47.2212 75.6236 47.2215 77.2684C47.2218 78.9133 45.8882 80.2466 44.2437 80.2469L38.4344 80.2475C36.7896 80.2478 35.4562 78.9145 35.4559 77.2696ZM78.1255 90.8638L70.1666 90.8793L67.7338 83.3445L67.732 83.3389C67.7296 83.3314 67.7272 83.324 67.7248 83.3165C67.0074 81.088 65.2494 79.3311 63.0229 78.617C61.1725 78.0231 59.2031 78.1851 57.4751 79.0732C55.7466 79.9616 54.468 81.4695 53.8763 83.3145L51.4345 90.8793L43.877 90.8644C41.3861 90.7266 39.0375 91.8401 37.5728 93.8623C36.4319 95.4372 35.9723 97.3619 36.2791 99.2823C36.5856 101.203 37.622 102.889 39.1983 104.031L45.6407 108.693C45.6407 108.693 43.1006 116.482 43.078 116.598C42.5026 118.716 42.9172 121.005 44.2139 122.786C45.3563 124.355 47.0414 125.386 48.9596 125.687C50.8758 125.989 52.7973 125.526 54.3683 124.382L60.8003 119.69L66.8915 124.133C68.2168 125.222 69.8387 125.792 71.4958 125.792C72.252 125.792 73.0159 125.673 73.7622 125.431C75.6111 124.83 77.1153 123.545 77.9978 121.812C78.8808 120.079 79.0354 118.106 78.4323 116.253L75.9592 108.693L82.4031 104.03C82.4954 103.964 82.583 103.892 82.6661 103.816C84.3848 102.441 85.4021 100.342 85.4021 98.1339C85.4018 94.1256 82.1404 90.8638 78.1255 90.8638ZM78.8993 99.2004C78.8311 99.2498 78.7656 99.3019 78.7024 99.3567L70.7072 105.142C69.6586 105.9 69.2202 107.25 69.6222 108.48L72.7693 118.101C72.9164 118.554 72.783 118.927 72.6898 119.109C72.5968 119.292 72.3732 119.62 71.9211 119.767C71.4806 119.91 71.0062 119.816 70.6521 119.515C70.5961 119.467 70.5383 119.422 70.4791 119.378L62.5547 113.598C62.0317 113.217 61.4159 113.026 60.7997 113.026C60.1835 113.026 59.5673 113.217 59.0443 113.598L50.8594 119.569C50.4788 119.847 50.0854 119.836 49.8846 119.804C49.6842 119.772 49.3069 119.662 49.029 119.281C48.7791 118.938 48.7115 118.508 48.8432 118.102C48.8703 118.018 48.8932 117.934 48.9125 117.849L51.9771 108.48C52.3795 107.25 51.9411 105.901 50.8921 105.142L42.6911 99.2066C42.3046 98.9267 42.1929 98.5458 42.1604 98.3433C42.1282 98.141 42.116 97.7438 42.3963 97.3569C42.6667 96.9834 43.1048 96.7806 43.5676 96.8134C43.6364 96.8184 43.7055 96.8095 43.7746 96.8095L53.5951 96.8172C53.5972 96.8172 53.599 96.8172 53.6011 96.8172C54.8933 96.8172 56.0384 95.9953 56.4354 94.7653L59.5464 85.1332C59.6909 84.6817 60.0167 84.4611 60.1981 84.3681C60.3791 84.2749 60.7511 84.1421 61.2029 84.2868C61.6094 84.4173 61.9186 84.7258 62.0529 85.1329C62.0556 85.1413 62.0591 85.1538 62.0615 85.1612L65.166 94.7653C65.5633 95.9953 66.7081 96.8172 68.0003 96.8172C68.0021 96.8172 68.0045 96.8172 68.0063 96.8172L78.1318 96.8089C78.8564 96.8089 79.4458 97.4042 79.4458 98.1288C79.4455 98.5538 79.2462 98.9481 78.8993 99.2004Z" fill="#2FC6F5"/>
</svg>
