<svg width="95" height="84" viewBox="0 0 95 84" fill="none" xmlns="http://www.w3.org/2000/svg">
<path d="M18.5226 32.4521H2.51584C1.12634 32.4521 0 31.3373 0 29.9627C0 28.5881 1.12634 27.4733 2.51584 27.4733H19.9111C20.7753 27.4733 21.5788 27.9122 22.0395 28.6356L27.0503 36.5042L34.7658 17.0168C35.155 16.0338 36.1322 15.4072 37.1954 15.4368C38.2618 15.4732 39.1889 16.1714 39.5087 17.1789L46.8469 40.3022L49.5074 29.3792C49.7799 28.261 50.791 27.4731 51.9533 27.4731H64.4424C65.8319 27.4731 66.9582 28.5878 66.9582 29.9625C66.9582 31.3371 65.8319 32.4518 64.4424 32.4518H53.935L49.612 50.2004C49.3471 51.288 48.3815 52.0672 47.2514 52.105C47.2228 52.106 47.1941 52.1065 47.1654 52.1065C46.07 52.1065 45.0959 51.4033 44.7658 50.363L36.8469 25.4099L29.9191 42.9078C29.5729 43.7823 28.7588 44.3895 27.8138 44.4781C26.8701 44.5687 25.9539 44.1214 25.4482 43.327L18.5226 32.4521ZM88.453 8.73573C83.0473 3.56136 75.9828 0.711548 68.5608 0.711548C62.0365 0.711548 55.7975 2.89496 50.759 6.90158C45.7208 2.89471 39.4818 0.711548 32.9577 0.711548C25.535 0.711548 18.4703 3.56136 13.065 8.73573C9.84824 11.8151 7.7918 15.4906 6.95302 19.66C6.68181 21.0082 7.56638 22.3191 8.92921 22.5875C10.2915 22.8546 11.6164 21.9806 11.8878 20.6321C12.5321 17.4303 14.0615 14.7094 16.5638 12.3142C21.0256 8.04294 26.8477 5.6905 32.958 5.6905C38.96 5.6905 44.6687 7.9354 49.0321 12.0117C50.0015 12.9173 51.5165 12.9176 52.4861 12.0117C56.8496 7.9354 62.5585 5.6905 68.5608 5.6905C74.6703 5.6905 80.4922 8.04294 84.9545 12.3142C88.3859 15.5991 90.0254 19.5527 89.9668 24.401C89.7957 38.5729 74.7566 57.2901 60.7393 70.0814C60.016 70.7411 59.3373 71.3649 58.6975 71.9529C54.9215 75.4223 52.3402 77.7936 50.759 78.2607C49.1773 77.7936 46.5951 75.421 42.8175 71.9501C42.1788 71.3634 41.5007 70.7403 40.7787 70.0811C35.6577 65.4084 22.9965 53.0878 16.0463 39.6346C15.4138 38.4106 13.898 37.9251 12.6609 38.551C11.4239 39.1768 10.9336 40.6764 11.5661 41.9006C18.8854 56.0681 32.0482 68.887 37.3675 73.7407C38.0852 74.3957 38.759 75.0148 39.394 75.5983C44.6563 80.4334 47.298 82.8602 50.4314 83.2677C50.5404 83.2819 50.6498 83.2889 50.7593 83.2889C50.8687 83.2889 50.9781 83.2819 51.0868 83.2677C54.2206 82.8602 56.8612 80.4343 62.1215 75.601C62.7573 75.0168 63.432 74.3967 64.1508 73.741C71.3267 67.1925 94.759 44.2862 94.9982 24.4602C95.0732 18.2555 92.8711 12.9651 88.453 8.73573Z" fill="#2FC6F5"/>
</svg>
