<svg width="87" height="83" viewBox="0 0 87 83" fill="none" xmlns="http://www.w3.org/2000/svg">
<path d="M48.7094 73.6722C46.8672 75.346 44.8198 77.135 43.5039 77.5373C41.9494 77.0712 39.4131 74.7163 35.7034 71.2718C35.0735 70.6869 34.4045 70.0659 33.6925 69.4093C19.9076 56.696 5.118 38.093 4.94976 24.008C4.89211 19.1894 6.5045 15.2603 9.87872 11.9957C14.2671 7.7503 19.9927 5.41225 26.0014 5.41225C31.9042 5.41225 37.5177 7.64341 41.8086 11.6948C42.7619 12.5949 44.252 12.5949 45.2056 11.6948C49.4972 7.64341 55.1115 5.41225 61.0143 5.41225C67.0227 5.41225 72.7486 7.7503 77.1369 11.9954C84.0835 18.7164 83.6976 28.8724 75.9902 42.1815C75.3053 43.3639 75.7089 44.8776 76.8915 45.5624C78.0736 46.2475 79.5875 45.844 80.2724 44.6613C91.4745 25.3174 86.6215 14.2864 80.5777 8.43909C75.2608 3.29637 68.3132 0.463989 61.0138 0.463989C54.5979 0.463989 48.462 2.63405 43.5068 6.61616C38.5524 2.6338 32.417 0.463989 26.0011 0.463989C18.702 0.463989 11.7544 3.29637 6.43795 8.43934C2.09362 12.6426 -0.0717336 17.9004 0.00174805 24.0669C0.237285 43.7716 23.2806 66.5381 30.3375 73.0467C31.0454 73.6997 31.7102 74.3167 32.3364 74.8979C37.5081 79.6999 40.1042 82.11 43.1844 82.515C43.2913 82.5291 43.3992 82.536 43.5068 82.536C43.6145 82.536 43.7221 82.5291 43.829 82.515C46.3053 82.1899 48.5357 80.5151 52.0366 77.3347C53.0478 76.4158 53.123 74.8511 52.2041 73.8397C51.2855 72.8285 49.7208 72.7536 48.7094 73.6722Z" fill="#2FC6F5"/>
<path d="M78.5625 49.6061H70.6163V41.6607C70.6163 40.2944 69.5087 39.1865 68.1422 39.1865H58.1925C56.826 39.1865 55.7184 40.2944 55.7184 41.6607V49.6061H47.7722C46.4058 49.6061 45.2981 50.714 45.2981 52.0802V62.0309C45.2981 63.3971 46.4058 64.505 47.7722 64.505H55.7184V72.4504C55.7184 73.8167 56.826 74.9246 58.1925 74.9246H68.1422C69.5087 74.9246 70.6163 73.8167 70.6163 72.4504V64.505H78.5625C79.929 64.505 81.0366 63.3971 81.0366 62.0309V52.0802C81.0366 50.7137 79.929 49.6061 78.5625 49.6061ZM76.0884 59.5568H68.1422C66.7758 59.5568 65.6681 60.6647 65.6681 62.0309V69.9763H60.6666V62.0309C60.6666 60.6647 59.559 59.5568 58.1925 59.5568H50.2464V54.5543H58.1925C59.559 54.5543 60.6666 53.4464 60.6666 52.0802V44.1348H65.6681V52.0802C65.6681 53.4464 66.7758 54.5543 68.1422 54.5543H76.0884V59.5568Z" fill="#2FC6F5"/>
</svg>
