<svg width="47" height="47" viewBox="0 0 47 47" fill="none" xmlns="http://www.w3.org/2000/svg">
<path d="M23.4036 44.6479C35.094 44.6479 44.571 35.171 44.571 23.4806C44.571 11.7902 35.094 2.31323 23.4036 2.31323C11.7132 2.31323 2.23627 11.7902 2.23627 23.4806C2.23627 35.171 11.7132 44.6479 23.4036 44.6479Z" fill="#2FC6F5"/>
<path d="M28.0304 13.1862H30.6907V8.55948C30.2281 8.48237 28.6473 8.3667 26.7966 8.3667C22.9409 8.3667 20.3191 10.7957 20.3191 15.2297V19.2781H16.0779V24.4446H20.3191V37.4766H25.5242V24.4832H29.5726L30.2281 19.2781H25.5242V15.6924C25.5242 14.2272 25.9483 13.1862 28.0304 13.1862Z" fill="white"/>
</svg>
