<svg width="48" height="47" viewBox="0 0 48 47" fill="none" xmlns="http://www.w3.org/2000/svg">
<path d="M23.9016 44.6479C35.8407 44.6479 45.5193 35.171 45.5193 23.4806C45.5193 11.7902 35.8407 2.31323 23.9016 2.31323C11.9625 2.31323 2.28387 11.7902 2.28387 23.4806C2.28387 35.171 11.9625 44.6479 23.9016 44.6479Z" fill="#2FC6F5"/>
<path d="M37.9984 14.9983C36.9746 15.4224 35.872 15.7309 34.7695 15.8851C35.9508 15.1911 36.8171 14.1501 37.2502 12.8392C36.1477 13.4561 34.9664 13.9187 33.667 14.1886C32.6432 13.1091 31.1469 12.4536 29.5718 12.4536C26.461 12.4536 23.9409 14.9212 23.9409 17.9671C23.9409 18.3913 23.9803 18.8154 24.0591 19.2395C19.3733 19.0082 15.2387 16.8105 12.4824 13.4946C12.0099 14.3043 11.6948 15.2682 11.6948 16.2707C11.6948 18.1599 12.6793 19.8564 14.1756 20.8589C13.2699 20.8589 12.4036 20.589 11.6161 20.1649C11.6161 20.1649 11.6161 20.2034 11.6161 20.242C11.6161 22.9023 13.5849 25.1386 16.105 25.6398C15.6325 25.7555 15.16 25.8326 14.6481 25.8326C14.2937 25.8326 13.9393 25.7941 13.5849 25.7555C14.3331 27.9532 16.3807 29.534 18.822 29.5726C16.8925 31.0377 14.4906 31.9245 11.8524 31.9245C11.3798 31.9245 10.9467 31.8859 10.5135 31.8474C12.9943 33.4282 15.9475 34.315 19.137 34.315C29.5324 34.2379 35.2026 25.8326 35.2026 18.5455C35.2026 18.3142 35.2026 18.0828 35.1633 17.8515C36.3052 17.0804 37.2502 16.1165 37.9984 14.9983Z" fill="white"/>
</svg>
