<svg width="47" height="47" viewBox="0 0 47 47" fill="none" xmlns="http://www.w3.org/2000/svg">
<path d="M23.4036 44.6479C35.094 44.6479 44.571 35.171 44.571 23.4806C44.571 11.7902 35.094 2.31323 23.4036 2.31323C11.7132 2.31323 2.23627 11.7902 2.23627 23.4806C2.23627 35.171 11.7132 44.6479 23.4036 44.6479Z" fill="#2FC6F5"/>
<path d="M14.0048 9.02002C12.3443 9.02002 11.0003 10.3665 11 12.0232C11 13.6815 12.344 15.0277 14.0051 15.0277C15.6615 15.0277 17.0074 13.6815 17.0074 12.0232C17.0074 10.3662 15.6612 9.02002 14.0048 9.02002Z" fill="white"/>
<path d="M16.5945 17.3081H11.4132V33.9785H16.5945V17.3081Z" fill="white"/>
<path d="M29.7849 16.8936C27.2645 16.8936 25.5745 18.2755 24.8827 19.5859H24.8134V17.3081H19.844H19.8438V33.9782H25.0205V25.7314C25.0205 23.5573 25.4345 21.4514 28.1301 21.4514C30.787 21.4514 30.8224 23.9379 30.8224 25.8708V33.978H36V24.8344C36 20.3462 35.0315 16.8936 29.7849 16.8936Z" fill="white"/>
</svg>
