<svg width="197" height="85" viewBox="0 0 197 85" fill="none" xmlns="http://www.w3.org/2000/svg">
<path d="M101.725 22.5583V34.0181H99.6323V29.1089H93.779V34.0181H91.6859V22.5583H93.779V27.2792H99.6323V22.5583H101.725Z" fill="#171714"/>
<path d="M113.238 32.2261V34.003H104.754V22.5583H113.021V24.3352H106.862V27.3093H112.326V29.0562H106.862V32.2185H113.238V32.2261Z" fill="#171714"/>
<path d="M122.926 31.3677H117.26L116.154 34.0181H113.986L119.084 22.5583H121.147L126.26 34.0181H124.063L122.926 31.3677ZM122.231 29.7037L120.093 24.6966L117.985 29.7037H122.231Z" fill="#171714"/>
<path d="M127.696 22.5583H129.804V32.211H135.717V34.0181H127.696V22.5583Z" fill="#171714"/>
<path d="M138.625 24.3503H134.872V22.5583H144.478V24.3653H140.725V34.0181H138.632V24.3503H138.625Z" fill="#171714"/>
<path d="M156.117 22.5583V34.0181H154.024V29.1089H148.171V34.0181H146.063V22.5583H148.171V27.2792H154.024V22.5583H156.117Z" fill="#171714"/>
<path d="M91.6718 40.2901H93.7649V51.75H91.6718V40.2901Z" fill="#171714"/>
<path d="M106.884 40.2901V51.75H105.157L98.9229 43.9871V51.75H96.8447V40.2901H98.5715L104.806 48.053V40.2901H106.884Z" fill="#171714"/>
<path d="M110.884 51.5467C110.069 51.2982 109.418 50.9669 108.962 50.5452L109.687 48.8963C110.151 49.2728 110.719 49.5664 111.399 49.7998C112.08 50.0332 112.752 50.1612 113.433 50.1612C114.277 50.1612 114.898 50.0182 115.309 49.7547C115.728 49.4761 115.922 49.1146 115.922 48.6779C115.922 48.3542 115.802 48.0831 115.571 47.8648C115.339 47.6464 115.047 47.4883 114.696 47.3678C114.345 47.2398 113.851 47.1193 113.246 46.9612C112.386 46.7579 111.691 46.5396 111.153 46.3363C110.614 46.133 110.166 45.8092 109.785 45.3574C109.403 44.9207 109.216 44.3109 109.216 43.5654C109.216 42.9254 109.388 42.3683 109.725 41.8337C110.061 41.3217 110.57 40.9 111.265 40.5988C111.945 40.2901 112.79 40.1471 113.776 40.1471C114.472 40.1471 115.144 40.2374 115.81 40.4106C116.475 40.5838 117.058 40.8322 117.537 41.156L116.871 42.7899C116.378 42.4963 115.855 42.2779 115.316 42.1198C114.778 41.9617 114.255 41.8864 113.747 41.8864C112.917 41.8864 112.296 42.0294 111.9 42.308C111.496 42.5866 111.302 42.9631 111.302 43.4299C111.302 43.7537 111.407 44.0247 111.653 44.228C111.885 44.4313 112.177 44.6045 112.528 44.725C112.879 44.853 113.373 44.9734 113.978 45.1316C114.823 45.3349 115.503 45.5382 116.042 45.7415C116.58 45.9598 117.043 46.2685 117.424 46.7203C117.806 47.157 117.993 47.7518 117.993 48.4822C117.993 49.1222 117.821 49.6794 117.484 50.1989C117.148 50.7109 116.64 51.1175 115.944 51.4337C115.249 51.7424 114.419 51.8855 113.418 51.8855C112.551 51.9156 111.698 51.7951 110.884 51.5467Z" fill="#171714"/>
<path d="M121.289 50.5754C120.415 49.6869 119.981 48.4069 119.981 46.7579V40.2901H122.089V46.6676C122.089 48.9114 123.046 50.0332 124.967 50.0332C126.873 50.0332 127.83 48.9114 127.83 46.6676V40.2901H129.893V46.7579C129.893 48.4069 129.46 49.6869 128.585 50.5754C127.726 51.4638 126.507 51.9156 124.937 51.9156C123.382 51.9156 122.171 51.4638 121.289 50.5754Z" fill="#171714"/>
<path d="M140.239 51.75L137.929 48.3994C137.84 48.4144 137.683 48.4144 137.496 48.4144H134.939V51.75H132.831V40.2901H137.481C138.468 40.2901 139.312 40.4482 140.038 40.7871C140.763 41.1108 141.316 41.5852 141.719 42.1876C142.108 42.7974 142.303 43.5278 142.303 44.3711C142.303 45.2295 142.101 45.9749 141.69 46.5998C141.271 47.2248 140.673 47.6916 139.903 47.9852L142.504 51.7575H140.239V51.75ZM139.469 42.6845C138.991 42.293 138.303 42.0897 137.376 42.0897H134.909V46.66H137.376C138.303 46.66 138.991 46.4568 139.469 46.0652C139.948 45.6586 140.18 45.1014 140.18 44.3636C140.18 43.6407 139.948 43.076 139.469 42.6845Z" fill="#171714"/>
<path d="M151.991 49.0996H146.339L145.233 51.75H143.05L148.148 40.2901H150.212L155.325 51.75H153.127L151.991 49.0996ZM151.295 47.4281L149.158 42.421L147.049 47.4281H151.295Z" fill="#171714"/>
<path d="M166.814 40.2901V51.75H165.088L158.853 43.9871V51.75H156.76V40.2901H158.487L164.721 48.053V40.2901H166.814Z" fill="#171714"/>
<path d="M171.987 51.1551C171.06 50.6431 170.343 49.9354 169.819 49.0469C169.296 48.1584 169.035 47.1419 169.035 46.02C169.035 44.8982 169.296 43.8817 169.819 42.9932C170.343 42.1047 171.068 41.4045 171.987 40.885C172.914 40.373 173.946 40.1245 175.082 40.1245C176.009 40.1245 176.854 40.2826 177.624 40.6214C178.394 40.9452 179.044 41.4195 179.56 42.037L178.207 43.332C177.392 42.4436 176.375 41.9918 175.187 41.9918C174.417 41.9918 173.707 42.165 173.094 42.5038C172.481 42.8426 172.002 43.332 171.666 43.9419C171.315 44.5518 171.143 45.252 171.143 46.0125C171.143 46.7956 171.315 47.4808 171.666 48.0831C172.002 48.693 172.496 49.1749 173.094 49.5212C173.707 49.8676 174.402 50.0332 175.187 50.0332C176.39 50.0332 177.385 49.5815 178.207 48.6779L179.56 49.9881C179.037 50.613 178.394 51.0798 177.624 51.4036C176.854 51.7274 176.009 51.8855 175.082 51.8855C173.946 51.9156 172.914 51.6521 171.987 51.1551Z" fill="#171714"/>
<path d="M190.093 49.9655V51.7424H181.608V40.2901H189.876V42.0671H183.716V45.0412H189.181V46.788H183.716V49.9504H190.093V49.9655Z" fill="#171714"/>
<path d="M99.0799 69.4893L96.77 66.1387C96.6803 66.1538 96.5233 66.1538 96.3364 66.1538H93.7798V69.4893H91.6867V58.0295H96.3364C97.3231 58.0295 98.1679 58.1876 98.893 58.5114C99.6181 58.8352 100.171 59.3095 100.567 59.9119C100.971 60.5218 101.151 61.2521 101.151 62.0954C101.151 62.9538 100.949 63.6992 100.538 64.3241C100.119 64.9491 99.5209 65.4159 98.7509 65.7095L101.352 69.4818H99.0799V69.4893ZM98.3099 60.4163C97.8315 60.0248 97.1363 59.8215 96.2317 59.8215H93.7649V64.3919H96.2317C97.1363 64.3919 97.8464 64.1886 98.3099 63.7971C98.7883 63.3905 99.0201 62.8333 99.0201 62.0954C99.0126 61.3651 98.7808 60.8079 98.3099 60.4163Z" fill="#171714"/>
<path d="M111.96 67.6973V69.4743H103.475V58.0145H111.743V59.7914H105.583V62.7655H111.048V64.5124H105.583V67.6747H111.96V67.6973Z" fill="#171714"/>
<path d="M115.287 69.271C114.472 69.0225 113.821 68.6912 113.365 68.2696L114.09 66.6206C114.554 66.9971 115.122 67.2907 115.802 67.5241C116.483 67.7576 117.155 67.8856 117.836 67.8856C118.68 67.8856 119.316 67.7425 119.712 67.479C120.116 67.2154 120.325 66.839 120.325 66.4023C120.325 66.0785 120.205 65.8074 119.989 65.5891C119.757 65.3707 119.465 65.2126 119.114 65.0921C118.763 64.9641 118.269 64.8437 117.664 64.6855C116.804 64.4822 116.109 64.2639 115.571 64.0606C115.032 63.8573 114.584 63.5335 114.203 63.0968C113.821 62.6601 113.634 62.0502 113.634 61.3048C113.634 60.6648 113.806 60.085 114.143 59.573C114.479 59.061 114.988 58.6394 115.683 58.3382C116.363 58.0295 117.208 57.8864 118.194 57.8864C118.89 57.8864 119.562 57.9768 120.228 58.15C120.893 58.3232 121.476 58.5716 121.955 58.8954L121.289 60.5443C120.796 60.2507 120.273 60.0323 119.734 59.8742C119.196 59.7161 118.673 59.6408 118.165 59.6408C117.335 59.6408 116.714 59.7839 116.318 60.0625C115.914 60.341 115.72 60.7175 115.72 61.1843C115.72 61.5081 115.825 61.7792 116.071 61.9825C116.303 62.1858 116.595 62.3589 116.946 62.4644C117.297 62.5924 117.791 62.7128 118.411 62.8709C119.256 63.0742 119.936 63.2775 120.474 63.4808C121.013 63.6992 121.476 64.0229 121.857 64.4597C122.239 64.8964 122.426 65.4912 122.426 66.2215C122.426 66.8615 122.254 67.4187 121.917 67.9383C121.581 68.4503 121.072 68.8569 120.377 69.1731C119.682 69.4818 118.837 69.6249 117.851 69.6249C116.954 69.6474 116.101 69.5194 115.287 69.271Z" fill="#171714"/>
<path d="M125.692 68.3223C124.818 67.4338 124.384 66.1538 124.384 64.5048V58.037H126.492V64.4145C126.492 66.6583 127.449 67.7802 129.37 67.7802C131.276 67.7802 132.233 66.6583 132.233 64.4145V58.037H134.296V64.5048C134.296 66.1538 133.863 67.4338 132.988 68.3223C132.129 69.2108 130.91 69.6625 129.34 69.6625C127.77 69.6625 126.559 69.2108 125.692 68.3223Z" fill="#171714"/>
<path d="M137.227 58.0295H139.335V67.6823H145.248V69.4743H137.227V58.0295Z" fill="#171714"/>
<path d="M148.156 59.8215H144.403V58.0295H154.009V59.8215H150.256V69.4743H148.163V59.8215H148.156Z" fill="#171714"/>
<path d="M156.453 69.271C155.639 69.0225 154.988 68.6912 154.525 68.2696L155.25 66.6206C155.713 66.9971 156.282 67.2907 156.962 67.5241C157.642 67.7576 158.315 67.8856 158.995 67.8856C159.84 67.8856 160.46 67.7425 160.871 67.479C161.29 67.2004 161.484 66.839 161.484 66.4023C161.484 66.0785 161.365 65.8074 161.133 65.5891C160.901 65.3707 160.61 65.2126 160.258 65.0921C159.907 64.9641 159.414 64.8437 158.808 64.6855C157.949 64.4822 157.253 64.2639 156.715 64.0606C156.177 63.8573 155.728 63.5335 155.347 63.0968C154.966 62.6601 154.779 62.0502 154.779 61.3048C154.779 60.6648 154.951 60.085 155.287 59.573C155.624 59.061 156.132 58.6394 156.827 58.3382C157.508 58.0295 158.352 57.8864 159.339 57.8864C160.034 57.8864 160.707 57.9768 161.372 58.15C162.03 58.3232 162.621 58.5716 163.099 58.8954L162.441 60.5443C161.948 60.2507 161.425 60.0323 160.886 59.8742C160.348 59.7161 159.825 59.6408 159.317 59.6408C158.487 59.6408 157.866 59.7839 157.47 60.0625C157.066 60.341 156.872 60.7175 156.872 61.1843C156.872 61.5081 156.992 61.7792 157.223 61.9825C157.455 62.1858 157.747 62.3589 158.098 62.4644C158.449 62.5924 158.943 62.7128 159.548 62.8709C160.393 63.0742 161.073 63.2775 161.612 63.4808C162.15 63.6992 162.613 64.0229 162.994 64.4597C163.383 64.8964 163.563 65.4912 163.563 66.2215C163.563 66.8615 163.391 67.4187 163.054 67.9383C162.718 68.4503 162.21 68.8569 161.514 69.1731C160.819 69.4818 159.989 69.6249 158.988 69.6249C158.113 69.6474 157.268 69.5194 156.453 69.271Z" fill="#171714"/>
<path d="M74.897 33.2802C74.897 33.2802 75.5249 33.1748 76.1528 33.5061C76.564 33.7244 76.6761 34.0482 76.6761 34.0482L75.4576 36.6007L74.1569 35.9531L74.897 33.2802Z" fill="#00CCEB"/>
<path d="M64.6781 60.5669C64.6781 60.5669 65.0893 59.43 64.4987 58.5792C63.9381 57.7811 60.8208 63.127 60.8208 63.127L64.3268 61.2371L64.6781 60.5669Z" fill="#00CCEB"/>
<path d="M55.1465 15.0815C55.7819 13.7864 56.051 12.2806 55.7744 10.6843C55.2287 7.60476 52.6647 5.2104 49.5699 4.90169C45.3687 4.48004 41.8328 7.793 41.8328 11.9417C41.8328 14.3813 43.0588 16.5272 44.9202 17.7996C42.0496 19.4561 39.6201 21.7978 37.841 24.5987C34.2603 18.9441 28.0258 15.1719 20.8943 15.0815C9.09811 14.9309 -0.223704 25.0505 0.247246 36.9245C0.486458 42.9631 2.84868 53.7151 21.4624 69.3312C30.9487 77.2899 44.7557 77.2673 54.242 69.3011C74.2312 52.518 75.4422 41.3593 75.4422 35.6294C75.4497 24.3126 66.3671 15.1342 55.1465 15.0815Z" fill="url(#paint0_linear)"/>
<path d="M77.4461 38.2124C77.3414 36.2096 77.0125 34.8618 76.6313 33.9507C75.8538 36.4279 62.9064 46.0204 47.7613 34.6359C41.5194 29.9375 37.834 24.6067 37.834 24.6067C36.0324 21.7605 33.5506 19.3888 30.6202 17.7248C32.5788 16.3318 33.7973 13.96 33.5655 11.3097C33.2665 7.89128 30.6651 5.24091 27.2787 4.90209C23.0776 4.48797 19.5417 7.80093 19.5417 11.9421C19.5417 13.0715 19.8108 14.1407 20.2818 15.0894C9.18081 15.2701 0.225296 24.3958 0.225296 35.6298C0.225296 41.7889 1.63067 54.2351 26.292 73.2018C31.4276 77.1472 37.9611 78.3896 43.9788 76.8611C44.8982 76.6277 45.8027 76.319 46.6699 75.95C48.7331 75.0766 50.602 73.7891 52.269 72.2756L64.409 61.2751C64.7454 60.9513 64.8052 59.9725 64.8052 59.7466C64.8052 60.1758 64.6632 60.5146 64.4987 60.8008C63.6091 62.3518 58.7352 62.5325 52.8296 59.0163C45.3168 54.5362 42.6108 51.0275 42.5136 50.8468C42.6407 51.0125 47.8435 55.8765 59.3108 55.8916C74.9867 55.9292 77.6853 42.8505 77.4461 38.2124Z" fill="url(#paint1_linear)"/>
<defs>
<linearGradient id="paint0_linear" x1="44.1948" y1="-0.592401" x2="37.2318" y2="39.1015" gradientUnits="userSpaceOnUse">
<stop stop-color="#00B8EB"/>
<stop offset="1" stop-color="#0093C8"/>
</linearGradient>
<linearGradient id="paint1_linear" x1="0.2241" y1="41.1834" x2="77.4596" y2="41.1834" gradientUnits="userSpaceOnUse">
<stop offset="0.260417" stop-color="#00DEFF"/>
<stop offset="1" stop-color="#2FC6F5"/>
</linearGradient>
</defs>
</svg>
