<svg width="77" height="73" viewBox="0 0 77 73" fill="none" xmlns="http://www.w3.org/2000/svg">
<path d="M73.7564 28.8886C73.7564 28.8886 74.3748 28.7845 74.9931 29.1119C75.398 29.3277 75.5085 29.6476 75.5085 29.6476L74.3085 32.1701L73.0276 31.5302L73.7564 28.8886Z" fill="#00CCEB"/>
<path d="M63.6932 55.8544C63.6932 55.8544 64.0981 54.7308 63.5165 53.89C62.9644 53.1013 59.8946 58.3843 59.8946 58.3843L63.3472 56.5166L63.6932 55.8544Z" fill="#00CCEB"/>
<path d="M54.3055 10.9041C54.9312 9.62424 55.1962 8.13607 54.9238 6.5586C54.3864 3.51529 51.8614 1.14909 48.8138 0.844014C44.6766 0.427325 41.1945 3.70131 41.1945 7.80123C41.1945 10.2121 42.4018 12.3327 44.2349 13.5902C41.408 15.2272 39.0155 17.5413 37.2635 20.3093C33.7373 14.7212 27.5978 10.9934 20.5748 10.9041C8.95832 10.7553 -0.221538 20.7558 0.24224 32.49C0.47781 38.4576 2.80406 49.0832 21.1343 64.5156C30.4761 72.3806 44.0729 72.3582 53.4147 64.4858C73.0995 47.9001 74.2921 36.8727 74.2921 31.2102C74.2994 20.0266 65.3552 10.9562 54.3055 10.9041Z" fill="url(#paint0_linear)"/>
<path d="M76.2667 33.7628C76.1636 31.7836 75.8397 30.4517 75.4643 29.5513C74.6987 31.9994 61.9485 41.479 47.034 30.2284C40.8871 25.5853 37.2578 20.3172 37.2578 20.3172C35.4837 17.5045 33.0397 15.1607 30.1539 13.5162C32.0827 12.1397 33.2826 9.7958 33.0544 7.17661C32.7599 3.79845 30.1981 1.17927 26.8633 0.844426C22.7261 0.435178 19.2441 3.70916 19.2441 7.80164C19.2441 8.91777 19.5091 9.97438 19.9729 10.9119C9.041 11.0905 0.221863 20.1088 0.221863 31.2106C0.221863 37.2973 1.60584 49.597 25.8916 68.3406C30.949 72.2396 37.383 73.4673 43.309 71.9568C44.2145 71.7262 45.1052 71.4211 45.9592 71.0565C47.991 70.1934 49.8314 68.921 51.473 67.4254L63.4281 56.5542C63.7594 56.2343 63.8183 55.267 63.8183 55.0437C63.8183 55.4679 63.6784 55.8027 63.5165 56.0855C62.6405 57.6183 57.8407 57.7969 52.0251 54.322C44.6267 49.8947 41.9619 46.4272 41.8662 46.2486C41.9913 46.4123 47.1149 51.2191 58.4076 51.234C73.8447 51.2712 76.5023 38.3464 76.2667 33.7628Z" fill="url(#paint1_linear)"/>
<defs>
<linearGradient id="paint0_linear" x1="43.5205" y1="-4.58544" x2="36.6167" y2="34.6332" gradientUnits="userSpaceOnUse">
<stop stop-color="#00B8EB"/>
<stop offset="1" stop-color="#0093C8"/>
</linearGradient>
<linearGradient id="paint1_linear" x1="0.220685" y1="36.6989" x2="76.28" y2="36.6989" gradientUnits="userSpaceOnUse">
<stop offset="0.260417" stop-color="#00DEFF"/>
<stop offset="1" stop-color="#2FC6F5"/>
</linearGradient>
</defs>
</svg>
