<svg width="79" height="93" viewBox="0 0 79 93" fill="none" xmlns="http://www.w3.org/2000/svg">
<path d="M44.979 25.7387V26.5109C44.979 27.8892 43.8617 29.0064 42.4834 29.0064C41.1051 29.0064 39.9879 27.8892 39.9879 26.5109V25.7387C39.9879 24.3604 41.1051 23.2431 42.4834 23.2431C43.8617 23.2431 44.979 24.3604 44.979 25.7387ZM33.5527 23.2431C32.1744 23.2431 31.0571 24.3604 31.0571 25.7387V26.5109C31.0571 27.8892 32.1744 29.0064 33.5527 29.0064C34.931 29.0064 36.0483 27.8892 36.0483 26.5109V25.7387C36.0483 24.3604 34.931 23.2431 33.5527 23.2431ZM15.6913 23.2431C14.313 23.2431 13.1957 24.3604 13.1957 25.7387V26.5109C13.1957 27.8892 14.313 29.0064 15.6913 29.0064C17.0696 29.0064 18.1869 27.8892 18.1869 26.5109V25.7387C18.1869 24.3604 17.0696 23.2431 15.6913 23.2431ZM24.622 23.2431C23.2437 23.2431 22.1264 24.3604 22.1264 25.7387V26.5109C22.1264 27.8892 23.2437 29.0064 24.622 29.0064C26.0003 29.0064 27.1176 27.8892 27.1176 26.5109V25.7387C27.1176 24.3604 26.0003 23.2431 24.622 23.2431ZM63.3086 12.3886C64.6869 12.3886 65.8042 11.2713 65.8042 9.893V9.12087C65.8042 7.74256 64.6869 6.62528 63.3086 6.62528C61.9303 6.62528 60.813 7.74256 60.813 9.12087V9.893C60.813 11.2713 61.9303 12.3886 63.3086 12.3886ZM47.9433 9.893V9.12087C47.9433 7.74256 46.826 6.62528 45.4477 6.62528C44.0694 6.62528 42.9521 7.74256 42.9521 9.12087V9.893C42.9521 11.2713 44.0694 12.3886 45.4477 12.3886C46.826 12.3886 47.9433 11.2713 47.9433 9.893ZM57.4188 54.7502C57.419 54.7664 57.4193 54.7829 57.4193 54.7993V77.7802C57.4193 77.7966 57.4193 77.8129 57.4188 77.8293V90.5047C57.4188 91.883 56.3015 93.0003 54.9232 93.0003H3.25108C1.87277 93.0003 0.755493 91.883 0.755493 90.5047V42.2338C0.755493 40.8555 1.87277 39.7382 3.25108 39.7382H8.08553V35.6315H6.14845C4.77014 35.6315 3.65287 34.5142 3.65287 33.1359V19.1134C3.65287 17.7351 4.77014 16.6179 6.14845 16.6179H52.0258C53.4041 16.6179 54.5214 17.7351 54.5214 19.1134V33.1359C54.5214 34.5142 53.4041 35.6315 52.0258 35.6315H50.0887V39.7382H54.9232C56.3015 39.7382 57.4188 40.8555 57.4188 42.2338V54.7502ZM8.64404 30.6406H49.5302V21.609H8.64404V30.6406ZM52.4276 80.2755H5.74667V88.0088H52.4276V80.2755ZM52.4276 57.2947H5.74667V75.2843H52.4276V57.2947ZM52.4276 44.7294H47.5931C46.2148 44.7294 45.0976 43.6121 45.0976 42.2338V35.6315H13.0767V42.2338C13.0767 43.6121 11.9594 44.7294 10.5811 44.7294H5.74667V52.3035H52.4276V44.7294ZM39.0123 9.893V9.12087C39.0123 7.74256 37.8951 6.62528 36.5167 6.62528C35.1384 6.62528 34.0212 7.74256 34.0212 9.12087V9.893C34.0212 11.2713 35.1384 12.3886 36.5167 12.3886C37.8951 12.3886 39.0123 11.2713 39.0123 9.893ZM54.3779 12.3886C55.7562 12.3886 56.8735 11.2713 56.8735 9.893V9.12087C56.8735 7.74256 55.7562 6.62528 54.3779 6.62528C52.9996 6.62528 51.8823 7.74256 51.8823 9.12087V9.893C51.8823 11.2713 52.9996 12.3886 54.3779 12.3886ZM24.3572 68.8647H33.8173C35.1956 68.8647 36.3129 67.7474 36.3129 66.3691C36.3129 64.9908 35.1956 63.8735 33.8173 63.8735H24.3572C22.9789 63.8735 21.8617 64.9908 21.8617 66.3691C21.8617 67.7474 22.9789 68.8647 24.3572 68.8647ZM75.7488 23.1204H70.9144V19.0139H72.851C74.2293 19.0139 75.3466 17.8966 75.3466 16.5183V2.49559C75.3466 1.11727 74.2293 0 72.851 0H26.9741C25.5958 0 24.4785 1.11727 24.4785 2.49559V7.59082C24.4785 8.96914 25.5958 10.0864 26.9741 10.0864C28.3524 10.0864 29.4697 8.96914 29.4697 7.59082V4.99117H70.3554V14.0227H60.9405C59.5622 14.0227 58.445 15.14 58.445 16.5183C58.445 17.8966 59.5622 19.0139 60.9405 19.0139H65.923V25.6159C65.923 26.9943 67.0403 28.1115 68.4186 28.1115H73.253V35.6856H62.8564C61.4781 35.6856 60.3608 36.8029 60.3608 38.1812C60.3608 39.5595 61.4781 40.6768 62.8564 40.6768H73.2533V58.6665H62.8564C61.4781 58.6665 60.3608 59.7838 60.3608 61.1621C60.3608 62.5404 61.4781 63.6576 62.8564 63.6576H73.2533V71.391H63.4241C62.0458 71.391 60.9286 72.5082 60.9286 73.8866C60.9286 75.2649 62.0458 76.3821 63.4241 76.3821H75.7488C77.1272 76.3821 78.2444 75.2649 78.2444 73.8866V25.6159C78.2444 24.2376 77.1272 23.1204 75.7488 23.1204Z" fill="#2FC6F5"/>
</svg>
