<svg width="17" height="17" viewBox="0 0 17 17" fill="none" xmlns="http://www.w3.org/2000/svg">
<g clip-path="url(#clip0)">
<path d="M16.5633 13.2128L13.7465 10.3961C13.1628 9.81229 12.2179 9.81219 11.6341 10.3961L10.9299 11.1003C10.3473 11.6827 9.39972 11.6827 8.81501 11.0979L5.86584 8.18783C5.28339 7.60538 5.28339 6.65776 5.86584 6.07531L6.57002 5.37114C7.15247 4.78873 7.15247 3.84107 6.57002 3.25863L3.75336 0.441939C3.17091 -0.14051 2.22319 -0.140444 1.64084 0.441939L0.936736 1.14611C0.0227199 2.06009 -0.246093 4.07526 0.235187 6.40512C0.541918 7.89 1.42436 10.7489 3.8882 13.2127C6.34706 15.6716 9.18277 16.5155 10.6542 16.7996C12.2717 17.112 14.7024 17.1861 15.8591 16.0294L16.5633 15.3252C17.1456 14.7428 17.1456 13.7952 16.5633 13.2128ZM2.34508 1.14611C2.53925 0.951972 2.85508 0.951939 3.04929 1.14611L5.86598 3.9628C6.06015 4.15697 6.06015 4.47283 5.86598 4.667L5.51565 5.01733L1.99472 1.49647L2.34508 1.14611ZM10.8431 15.8219C9.48349 15.5593 6.86353 14.7797 4.59237 12.5086C2.31198 10.2281 1.49468 7.57951 1.21046 6.20368C0.833973 4.38122 0.990725 3.0113 1.35629 2.26635L4.84651 5.7566C4.20598 6.72297 4.31124 8.04153 5.16406 8.89432L8.11323 11.8044C8.9636 12.6548 10.2814 12.7607 11.2486 12.1197L14.7416 15.6127C13.6772 16.1525 12.0219 16.0495 10.8431 15.8219ZM15.8591 14.6211L15.5087 14.9714L11.9879 11.4506L12.3382 11.1003C12.5328 10.9057 12.8477 10.9057 13.0424 11.1003L15.8591 13.917C16.0532 14.1111 16.0532 14.427 15.8591 14.6211Z" fill="#2FC6F5"/>
<path d="M9.53039 0.00366211C9.2554 0.00366211 9.03247 0.226588 9.03247 0.501576C9.03247 0.776564 9.2554 0.99949 9.53039 0.99949C13.0996 0.99949 16.0034 3.90327 16.0034 7.47247C16.0034 7.74746 16.2263 7.97039 16.5013 7.97039C16.7763 7.97039 16.9992 7.74746 16.9992 7.47247C16.9992 3.35416 13.6487 0.00366211 9.53039 0.00366211Z" fill="#2FC6F5"/>
<path d="M9.53038 1.99536C9.2554 1.99536 9.03247 2.21829 9.03247 2.49328C9.03247 2.76826 9.2554 2.99119 9.53038 2.99119C12.0014 2.99119 14.0117 5.00151 14.0117 7.47248C14.0117 7.74747 14.2346 7.9704 14.5096 7.9704C14.7846 7.9704 15.0075 7.74747 15.0075 7.47248C15.0075 4.45239 12.5505 1.99536 9.53038 1.99536Z" fill="#2FC6F5"/>
<path d="M9.53038 3.9873C9.2554 3.9873 9.03247 4.21023 9.03247 4.48522C9.03247 4.76021 9.2554 4.98313 9.53038 4.98313C10.9032 4.98313 12.02 6.09995 12.02 7.47274C12.02 7.74773 12.2429 7.97065 12.5179 7.97065C12.7929 7.97065 13.0158 7.74773 13.0158 7.47274C13.0159 5.55087 11.4522 3.9873 9.53038 3.9873Z" fill="#2FC6F5"/>
<path d="M9.53038 5.97876C9.2554 5.97876 9.03247 6.20169 9.03247 6.47667C9.03247 6.75166 9.2554 6.97459 9.53038 6.97459C9.80494 6.97459 10.0283 7.19795 10.0283 7.4725C10.0283 7.74749 10.2512 7.97042 10.5262 7.97042C10.8012 7.97042 11.0241 7.74749 11.0241 7.4725C11.0242 6.64883 10.3541 5.97876 9.53038 5.97876Z" fill="#2FC6F5"/>
</g>
<defs>
<clipPath id="clip0">
<rect width="17" height="17" fill="white"/>
</clipPath>
</defs>
</svg>
