<svg width="78" height="79" viewBox="0 0 78 79" fill="none" xmlns="http://www.w3.org/2000/svg">
<path d="M75.4819 8.3479H2.51806C1.12742 8.3479 0 9.47498 0 10.866V67.7576C0 69.1486 1.12742 70.2756 2.51806 70.2756H75.4819C76.8726 70.2756 78 69.1486 78 67.7576V10.866C78 9.47532 76.8726 8.3479 75.4819 8.3479ZM72.9639 13.3843V61.4258L52.8211 40.0059C52.3454 39.5 51.6816 39.2129 50.9873 39.2129C50.987 39.2129 50.987 39.2129 50.987 39.2129C50.2926 39.2129 49.6292 39.5 49.1531 40.0052L40.5515 49.1465L29.0191 33.9404C28.543 33.3126 27.8007 32.9439 27.0127 32.9439C27.012 32.9439 27.0114 32.9439 27.0107 32.9439C26.222 32.9446 25.4794 33.3146 25.004 33.9438L5.03611 60.3629V13.3843H72.9639ZM69.6377 65.2399H7.66295L27.0161 39.6332L38.3379 54.562C38.7858 55.1525 39.4707 55.5155 40.2107 55.5547C40.9496 55.5917 41.6705 55.3056 42.1781 54.7658L50.9859 45.4056L69.6377 65.2399Z" fill="#C6DCE3"/>
<path d="M52.1193 34.4508C56.6844 34.4508 60.398 30.7371 60.398 26.1727C60.398 21.6077 56.6844 17.894 52.1193 17.894C47.5546 17.894 43.8413 21.608 43.8413 26.1727C43.8413 30.7371 47.5549 34.4508 52.1193 34.4508ZM52.1193 22.9298C53.9075 22.9298 55.3619 24.3846 55.3619 26.1724C55.3619 27.9599 53.9075 29.4143 52.1193 29.4143C50.3315 29.4143 48.8774 27.9599 48.8774 26.1724C48.8774 24.3846 50.3319 22.9298 52.1193 22.9298Z" fill="#C6DCE3"/>
</svg>
